<svg width="500" height="500" viewBox="0 0 500 500" fill="none" xmlns="http://www.w3.org/2000/svg">
<path d="M224 15.0111C240.089 5.7222 259.911 5.7222 276 15.0111L440.506 109.989C456.595 119.278 466.506 136.444 466.506 155.022V344.978C466.506 363.556 456.595 380.722 440.506 390.011L276 484.989C259.911 494.278 240.089 494.278 224 484.989L59.4937 390.011C43.4048 380.722 33.4937 363.556 33.4937 344.978V155.022C33.4937 136.444 43.4048 119.278 59.4937 109.989L224 15.0111Z" fill="url(#paint0_linear_9_18)"/>
<path d="M224 32.0111C240.089 22.7222 259.911 22.7222 276 32.0111L425.784 118.489C441.873 127.778 451.784 144.944 451.784 163.522V336.478C451.784 355.056 441.873 372.222 425.784 381.511L276 467.989C259.911 477.278 240.089 477.278 224 467.989L74.2161 381.511C58.1272 372.222 48.2161 355.056 48.2161 336.478V163.522C48.2161 144.944 58.1272 127.778 74.2161 118.489L224 32.0111Z" fill="url(#paint1_linear_9_18)"/>
<path fill-rule="evenodd" clip-rule="evenodd" d="M277.093 42.6424C260.328 32.9629 239.672 32.9629 222.907 42.6424L83.9698 122.858C67.2043 132.537 56.8763 150.426 56.8763 169.785V330.215C56.8763 349.574 67.2043 367.463 83.9698 377.142L222.907 457.358C239.672 467.037 260.328 467.037 277.093 457.358L416.03 377.142C432.796 367.463 443.124 349.574 443.124 330.215V169.785C443.124 150.426 432.796 132.537 416.03 122.858L277.093 42.6424ZM95.9763 190.341L139.976 164.533C142.643 162.969 146 164.892 146 167.983V205.681C146 206.837 145.5 207.936 144.629 208.696L123.871 226.804C123 227.564 122.5 228.663 122.5 229.819V271.525C122.5 272.77 123.079 273.944 124.068 274.701L144.432 290.299C145.421 291.056 146 292.23 146 293.475V332.342C146 335.471 142.569 337.388 139.904 335.748L95.9036 308.671C94.7206 307.943 94 306.654 94 305.265V193.791C94 192.372 94.7521 191.059 95.9763 190.341ZM359.524 164.533L403.524 190.341C404.748 191.059 405.5 192.372 405.5 193.791V305.265C405.5 306.654 404.779 307.943 403.596 308.671L359.596 335.748C356.931 337.388 353.5 335.471 353.5 332.342V293.475C353.5 292.23 354.08 291.056 355.068 290.299L375.432 274.701C376.421 273.944 377 272.77 377 271.525V229.819C377 228.663 376.5 227.564 375.629 226.804L354.871 208.696C354 207.936 353.5 206.837 353.5 205.681V167.983C353.5 164.892 356.857 162.969 359.524 164.533ZM212.56 276.26L208.6 309.2L219.58 308.48L223.54 275.72H241.36L242.26 267.62H224.44L228.22 237.2H244.6L245.68 228.74H229.3L232.9 198.86L221.74 199.04L218.14 229.1H198.34L202.12 198.32L191.14 198.68L187.54 229.46H167.56L167.02 237.74H186.64L183.04 268.52H165.22L164.5 276.62H181.96L178.18 308.66L188.8 308.48L192.58 276.26H212.56ZM213.46 268.16H193.66L197.26 237.56H217.24L213.46 268.16ZM256.3 314.42V325.4H333.88V314.42H256.3Z" fill="url(#paint2_linear_9_18)"/>
<defs>
<linearGradient id="paint0_linear_9_18" x1="250" y1="0" x2="250" y2="500" gradientUnits="userSpaceOnUse">
<stop stop-color="#3D3D3D"/>
<stop offset="1"/>
</linearGradient>
<linearGradient id="paint1_linear_9_18" x1="250" y1="17" x2="250" y2="483" gradientUnits="userSpaceOnUse">
<stop stop-color="#42FF00"/>
<stop offset="1" stop-color="#103E00"/>
</linearGradient>
<linearGradient id="paint2_linear_9_18" x1="250" y1="27" x2="250" y2="473" gradientUnits="userSpaceOnUse">
<stop/>
<stop offset="1" stop-color="#262626"/>
</linearGradient>
</defs>
</svg>
